# xmcd
#
# Track frame offsets:
#	150
#	23102
#	47243
#	70155
#	90723
#	119212
#	138257
#	166421
#	189991
#	232762
#
# Disc length: 3490 seconds
#
# Revision: 1
# Processed by: cddbd v1.5.2PL0 Copyright (c) Steve Scherf et al.
# Submitted via: audiograbber 1.83.01
#
DISCID=830da00a
DTITLE=Mountain Men - Mountain Men chante Brassens CD2
DYEAR=2013
DGENRE=Blues
TTITLE0=Le fantôme
TTITLE1=Histoire de faussaire
TTITLE2=Le mouton de Panurge
TTITLE3=Le gorille
TTITLE4=Le testament
TTITLE5=Quatre-vingt-quinze pour cent
TTITLE6=Stances à un cambrioleur
TTITLE7=Les passantes
TTITLE8=Supplique pour être enterré à la plage de Sète
TTITLE9=Bonus - Le petit cheval (Studio)
EXTD=
EXTT0=
EXTT1=
EXTT2=
EXTT3=
EXTT4=
EXTT5=
EXTT6=
EXTT7=
EXTT8=
EXTT9=
PLAYORDER=
